<?xml version="1.0"?>
<!-- Generated by SVGo -->
<svg width="266" height="38"
     xmlns="http://www.w3.org/2000/svg"
     xmlns:xlink="http://www.w3.org/1999/xlink">
<rect x="0" y="0" width="266" height="38" style="fill:white" />
<rect x="0" y="16" width="2" height="10" rx="1" ry="1" style="fill:black" />
<rect x="4" y="22" width="2" height="4" rx="1" ry="1" style="fill:black" />
<rect x="8" y="22" width="2" height="10" rx="1" ry="1" style="fill:black" />
<rect x="12" y="16" width="2" height="16" rx="1" ry="1" style="fill:black" />
<rect x="16" y="16" width="2" height="16" rx="1" ry="1" style="fill:black" />
<rect x="20" y="22" width="2" height="10" rx="1" ry="1" style="fill:black" />
<rect x="24" y="16" width="2" height="10" rx="1" ry="1" style="fill:black" />
<rect x="28" y="22" width="2" height="10" rx="1" ry="1" style="fill:black" />
<rect x="32" y="22" width="2" height="10" rx="1" ry="1" style="fill:black" />
<rect x="36" y="16" width="2" height="16" rx="1" ry="1" style="fill:black" />
<rect x="40" y="16" width="2" height="10" rx="1" ry="1" style="fill:black" />
<rect x="44" y="16" width="2" height="10" rx="1" ry="1" style="fill:black" />
<rect x="48" y="16" width="2" height="10" rx="1" ry="1" style="fill:black" />
<rect x="52" y="16" width="2" height="16" rx="1" ry="1" style="fill:black" />
<rect x="56" y="22" width="2" height="4" rx="1" ry="1" style="fill:black" />
<rect x="60" y="16" width="2" height="16" rx="1" ry="1" style="fill:black" />
<rect x="64" y="16" width="2" height="16" rx="1" ry="1" style="fill:black" />
<rect x="68" y="16" width="2" height="10" rx="1" ry="1" style="fill:black" />
<rect x="72" y="16" width="2" height="16" rx="1" ry="1" style="fill:black" />
<rect x="76" y="16" width="2" height="10" rx="1" ry="1" style="fill:black" />
<rect x="80" y="16" width="2" height="16" rx="1" ry="1" style="fill:black" />
<rect x="84" y="16" width="2" height="10" rx="1" ry="1" style="fill:black" />
<rect x="88" y="16" width="2" height="16" rx="1" ry="1" style="fill:black" />
<rect x="92" y="22" width="2" height="10" rx="1" ry="1" style="fill:black" />
<rect x="96" y="16" width="2" height="10" rx="1" ry="1" style="fill:black" />
<rect x="100" y="16" width="2" height="16" rx="1" ry="1" style="fill:black" />
<rect x="104" y="16" width="2" height="10" rx="1" ry="1" style="fill:black" />
<rect x="108" y="16" width="2" height="10" rx="1" ry="1" style="fill:black" />
<rect x="112" y="16" width="2" height="10" rx="1" ry="1" style="fill:black" />
<rect x="116" y="16" width="2" height="16" rx="1" ry="1" style="fill:black" />
<rect x="120" y="22" width="2" height="10" rx="1" ry="1" style="fill:black" />
<rect x="124" y="16" width="2" height="10" rx="1" ry="1" style="fill:black" />
<rect x="128" y="16" width="2" height="16" rx="1" ry="1" style="fill:black" />
<rect x="132" y="22" width="2" height="10" rx="1" ry="1" style="fill:black" />
<rect x="136" y="16" width="2" height="10" rx="1" ry="1" style="fill:black" />
<rect x="140" y="16" width="2" height="10" rx="1" ry="1" style="fill:black" />
<rect x="144" y="22" width="2" height="10" rx="1" ry="1" style="fill:black" />
<rect x="148" y="22" width="2" height="4" rx="1" ry="1" style="fill:black" />
<rect x="152" y="22" width="2" height="4" rx="1" ry="1" style="fill:black" />
<rect x="156" y="22" width="2" height="4" rx="1" ry="1" style="fill:black" />
<rect x="160" y="22" width="2" height="4" rx="1" ry="1" style="fill:black" />
<rect x="164" y="22" width="2" height="4" rx="1" ry="1" style="fill:black" />
<rect x="168" y="22" width="2" height="4" rx="1" ry="1" style="fill:black" />
<rect x="172" y="22" width="2" height="4" rx="1" ry="1" style="fill:black" />
<rect x="176" y="22" width="2" height="4" rx="1" ry="1" style="fill:black" />
<rect x="180" y="22" width="2" height="4" rx="1" ry="1" style="fill:black" />
<rect x="184" y="22" width="2" height="4" rx="1" ry="1" style="fill:black" />
<rect x="188" y="22" width="2" height="4" rx="1" ry="1" style="fill:black" />
<rect x="192" y="22" width="2" height="4" rx="1" ry="1" style="fill:black" />
<rect x="196" y="22" width="2" height="4" rx="1" ry="1" style="fill:black" />
<rect x="200" y="22" width="2" height="4" rx="1" ry="1" style="fill:black" />
<rect x="204" y="22" width="2" height="4" rx="1" ry="1" style="fill:black" />
<rect x="208" y="22" width="2" height="4" rx="1" ry="1" style="fill:black" />
<rect x="212" y="16" width="2" height="10" rx="1" ry="1" style="fill:black" />
<rect x="216" y="16" width="2" height="16" rx="1" ry="1" style="fill:black" />
<rect x="220" y="22" width="2" height="10" rx="1" ry="1" style="fill:black" />
<rect x="224" y="22" width="2" height="4" rx="1" ry="1" style="fill:black" />
<rect x="228" y="16" width="2" height="10" rx="1" ry="1" style="fill:black" />
<rect x="232" y="22" width="2" height="4" rx="1" ry="1" style="fill:black" />
<rect x="236" y="22" width="2" height="4" rx="1" ry="1" style="fill:black" />
<rect x="240" y="16" width="2" height="10" rx="1" ry="1" style="fill:black" />
<rect x="244" y="16" width="2" height="16" rx="1" ry="1" style="fill:black" />
<rect x="248" y="16" width="2" height="10" rx="1" ry="1" style="fill:black" />
<rect x="252" y="16" width="2" height="16" rx="1" ry="1" style="fill:black" />
<rect x="256" y="16" width="2" height="16" rx="1" ry="1" style="fill:black" />
<rect x="260" y="16" width="2" height="10" rx="1" ry="1" style="fill:black" />
<rect x="264" y="22" width="2" height="4" rx="1" ry="1" style="fill:black" />
<text x="0" y="10" style="font-size:10px; fill:black" font-family="Courier" >4 state barcode</text>
</svg>
